<svg version="1.0" xmlns="http://www.w3.org/2000/svg" width="1066.667" height="1066.667" viewBox="0 0 800 800"><path d="M224.9 107.4c-.2.2-2.4.6-4.9.9-6.4.7-17.7 3.3-23 5.2-2.5.9-5.2 1.8-6 2-3.3.7-17.9 7.9-24 11.8-16 10.2-27.3 20.6-37.9 34.7-12 15.9-22.6 39.8-24.6 55.4-.3 2.1-.7 4.1-.9 4.5-1.5 2.4-1.8 34.4-1.9 177.6 0 143 .4 177.2 1.9 179.7.3.4.7 2.6 1 5 1 7 7.2 24.4 12.5 34.7 8.1 15.7 21.3 32.1 35.5 43.9 2.9 2.3 5.6 4.2 6.2 4.2.6 0 1.2.4 1.4.8.5 1.5 11.5 8.1 20.1 12.1 13.2 6.1 25.6 9.8 41.4 12.1 4.9.7 63.1 1 175 .9 181.4-.1 175.7 0 194.8-5.5 4.9-1.4 13.1-4.6 18.2-7 5.1-2.4 9.7-4.4 10.2-4.4s1.1-.3 1.3-.8c.2-.4 2.8-2.3 5.8-4.2 3-1.9 5.7-3.7 6-4 .3-.3 2.8-2.3 5.5-4.4 5-4 15.8-14.6 20.5-20.2 10.1-12 22-35.2 25.6-49.9.4-1.7.8-3.5 1-4 1.6-6.4 2.6-11.7 3.1-16.8.3-3.4.6-81.4.7-173.2 0-129-.3-168.6-1.3-174-.6-3.9-1.4-8.4-1.7-10-1.5-9.5-9.9-30.6-16.1-40.3-1.8-2.9-3.3-5.5-3.3-5.8 0-1.1-11.7-15.3-17.4-21-7.5-7.5-17.9-15.7-26.9-21.2-3.8-2.3-7-4.2-7.3-4.2-.3 0-3.8-1.5-7.8-3.4-7.2-3.4-16.5-6.4-26.1-8.5-2.7-.6-6.3-1.4-8-1.8-3.1-.8-347.8-1.6-348.6-.9z"/></svg>