<?xml version="1.0" standalone="no"?>
<!DOCTYPE svg PUBLIC "-//W3C//DTD SVG 20010904//EN"
 "http://www.w3.org/TR/2001/REC-SVG-20010904/DTD/svg10.dtd">
<svg version="1.0" xmlns="http://www.w3.org/2000/svg"
 width="800.000000pt" height="800.000000pt" viewBox="0 0 800.000000 800.000000"
 preserveAspectRatio="xMidYMid meet">
<metadata>
Created by potrace 1.11, written by Peter Selinger 2001-2013
</metadata>
<g transform="translate(0.000000,800.000000) scale(0.100000,-0.100000)"
fill="#000000" stroke="none">
<path d="M2249 6926 c-2 -2 -24 -6 -49 -9 -64 -7 -177 -33 -230 -52 -25 -9
-52 -18 -60 -20 -33 -7 -179 -79 -240 -118 -160 -102 -273 -206 -379 -347
-120 -159 -226 -398 -246 -554 -3 -21 -7 -41 -9 -45 -15 -24 -18 -344 -19
-1776 0 -1430 4 -1772 19 -1797 3 -4 7 -26 10 -50 10 -70 72 -244 125 -347 81
-157 213 -321 355 -439 29 -23 56 -42 62 -42 6 0 12 -4 14 -8 5 -15 115 -81
201 -121 132 -61 256 -98 414 -121 49 -7 631 -10 1750 -9 1814 1 1757 0 1948
55 49 14 131 46 182 70 51 24 97 44 102 44 5 0 11 3 13 8 2 4 28 23 58 42 30
19 57 37 60 40 3 3 28 23 55 44 50 40 158 146 205 202 101 120 220 352 256
499 4 17 8 35 10 40 16 64 26 117 31 168 3 34 6 814 7 1732 0 1290 -3 1686
-13 1740 -6 39 -14 84 -17 100 -15 95 -99 306 -161 403 -18 29 -33 55 -33 58
0 11 -117 153 -174 210 -75 75 -179 157 -269 212 -38 23 -70 42 -73 42 -3 0
-38 15 -78 34 -72 34 -165 64 -261 85 -27 6 -63 14 -80 18 -31 8 -3478 16
-3486 9z"/>
</g>
</svg>
